name rise42.5664peak47.7979fall81.9185.mot
datacolumns 19
datarows 36
range 4.07831500000000 4.13665000000000
endheader
time	ground_force1_vx	ground_force1_vy	ground_force1_vz	ground_force1_px	ground_force1_py	ground_force1_pz	ground_force2_vx	ground_force2_vy	ground_force2_vz	ground_force2_px	ground_force2_py	ground_force2_pz	ground_torque1_x	ground_torque1_y	ground_torque1_z	ground_torque2_x	ground_torque2_y	ground_torque2_z	
4.07831500000000	-5.36464700000000	710.54391599999997	44.96992100000000	0.14731300000000	0.00000000000000	0.10319900000000	0.00000000000000	0.00000000000000	0.00000000000000	0.00000000000000	0.00000000000000	0.00000000000000	0.00000000000000	13.10899100000000	0.00000000000000	0.00000000000000	0.00000000000000	0.00000000000000	
4.07998100000000	-5.85872900000000	711.31592000000001	45.04448000000000	0.14633700000000	0.00000000000000	0.10319100000000	0.00000000000000	0.00000000000000	0.00000000000000	0.00000000000000	0.00000000000000	0.00000000000000	0.00000000000000	13.20003300000000	0.00000000000000	0.00000000000000	0.00000000000000	0.00000000000000	
4.08165100000000	-6.35867500000000	712.13595599999996	45.11896200000000	0.14534700000000	0.00000000000000	0.10318200000000	0.00000000000000	0.00000000000000	0.00000000000000	0.00000000000000	0.00000000000000	0.00000000000000	0.00000000000000	13.29276100000000	0.00000000000000	0.00000000000000	0.00000000000000	0.00000000000000	
4.08331500000000	-6.86421500000000	713.00256200000001	45.19303900000000	0.14434300000000	0.00000000000000	0.10317000000000	0.00000000000000	0.00000000000000	0.00000000000000	0.00000000000000	0.00000000000000	0.00000000000000	0.00000000000000	13.38702600000000	0.00000000000000	0.00000000000000	0.00000000000000	0.00000000000000	
4.08498800000000	-7.37504100000000	713.91426999999999	45.26640400000000	0.14332800000000	0.00000000000000	0.10315700000000	0.00000000000000	0.00000000000000	0.00000000000000	0.00000000000000	0.00000000000000	0.00000000000000	0.00000000000000	13.48268200000000	0.00000000000000	0.00000000000000	0.00000000000000	0.00000000000000	
4.08664800000000	-7.89081300000000	714.86960999999997	45.33876900000000	0.14230200000000	0.00000000000000	0.10314100000000	0.00000000000000	0.00000000000000	0.00000000000000	0.00000000000000	0.00000000000000	0.00000000000000	0.00000000000000	13.57958500000000	0.00000000000000	0.00000000000000	0.00000000000000	0.00000000000000	
4.08831900000000	-8.41116000000000	715.86711300000002	45.40987000000000	0.14126600000000	0.00000000000000	0.10312400000000	0.00000000000000	0.00000000000000	0.00000000000000	0.00000000000000	0.00000000000000	0.00000000000000	0.00000000000000	13.67759100000000	0.00000000000000	0.00000000000000	0.00000000000000	0.00000000000000	
4.08998200000000	-8.93567800000000	716.90531299999998	45.47946600000000	0.14022300000000	0.00000000000000	0.10310500000000	0.00000000000000	0.00000000000000	0.00000000000000	0.00000000000000	0.00000000000000	0.00000000000000	0.00000000000000	13.77656100000000	0.00000000000000	0.00000000000000	0.00000000000000	0.00000000000000	
4.09164800000000	-9.46393600000000	717.98274600000002	45.54734300000000	0.13917300000000	0.00000000000000	0.10308400000000	0.00000000000000	0.00000000000000	0.00000000000000	0.00000000000000	0.00000000000000	0.00000000000000	0.00000000000000	13.87635600000000	0.00000000000000	0.00000000000000	0.00000000000000	0.00000000000000	
4.09331500000000	-9.99547400000000	719.09795299999996	45.61330900000000	0.13811900000000	0.00000000000000	0.10306200000000	0.00000000000000	0.00000000000000	0.00000000000000	0.00000000000000	0.00000000000000	0.00000000000000	0.00000000000000	13.97684000000000	0.00000000000000	0.00000000000000	0.00000000000000	0.00000000000000	
4.09498200000000	-10.52981000000000	720.24947999999995	45.67720100000000	0.13706200000000	0.00000000000000	0.10303600000000	0.00000000000000	0.00000000000000	0.00000000000000	0.00000000000000	0.00000000000000	0.00000000000000	0.00000000000000	14.07787800000000	0.00000000000000	0.00000000000000	0.00000000000000	0.00000000000000	
4.09665400000000	-11.06643800000000	721.43587900000000	45.73888000000000	0.13600300000000	0.00000000000000	0.10300900000000	0.00000000000000	0.00000000000000	0.00000000000000	0.00000000000000	0.00000000000000	0.00000000000000	0.00000000000000	14.17933700000000	0.00000000000000	0.00000000000000	0.00000000000000	0.00000000000000	
4.09831400000000	-11.60483200000000	722.65570800000000	45.79823800000000	0.13494500000000	0.00000000000000	0.10298000000000	0.00000000000000	0.00000000000000	0.00000000000000	0.00000000000000	0.00000000000000	0.00000000000000	0.00000000000000	14.28108500000000	0.00000000000000	0.00000000000000	0.00000000000000	0.00000000000000	
4.09998700000000	-12.14444800000000	723.90753400000006	45.85519000000000	0.13388800000000	0.00000000000000	0.10294900000000	0.00000000000000	0.00000000000000	0.00000000000000	0.00000000000000	0.00000000000000	0.00000000000000	0.00000000000000	14.38299500000000	0.00000000000000	0.00000000000000	0.00000000000000	0.00000000000000	
4.10164800000000	-12.68472600000000	725.18992600000001	45.90968200000000	0.13283400000000	0.00000000000000	0.10291600000000	0.00000000000000	0.00000000000000	0.00000000000000	0.00000000000000	0.00000000000000	0.00000000000000	0.00000000000000	14.48493600000000	0.00000000000000	0.00000000000000	0.00000000000000	0.00000000000000	
4.10331400000000	-13.22509500000000	726.50146199999995	45.96168800000000	0.13178500000000	0.00000000000000	0.10288000000000	0.00000000000000	0.00000000000000	0.00000000000000	0.00000000000000	0.00000000000000	0.00000000000000	0.00000000000000	14.58678300000000	0.00000000000000	0.00000000000000	0.00000000000000	0.00000000000000	
4.10498100000000	-13.76497100000000	727.84072300000003	46.01120800000000	0.13074200000000	0.00000000000000	0.10284300000000	0.00000000000000	0.00000000000000	0.00000000000000	0.00000000000000	0.00000000000000	0.00000000000000	0.00000000000000	14.68841100000000	0.00000000000000	0.00000000000000	0.00000000000000	0.00000000000000	
4.10665400000000	-14.30376100000000	729.20629599999995	46.05827200000000	0.12970600000000	0.00000000000000	0.10280300000000	0.00000000000000	0.00000000000000	0.00000000000000	0.00000000000000	0.00000000000000	0.00000000000000	0.00000000000000	14.78969500000000	0.00000000000000	0.00000000000000	0.00000000000000	0.00000000000000	
4.10831500000000	-14.84087000000000	730.59676999999999	46.10293400000000	0.12868000000000	0.00000000000000	0.10276200000000	0.00000000000000	0.00000000000000	0.00000000000000	0.00000000000000	0.00000000000000	0.00000000000000	0.00000000000000	14.89051400000000	0.00000000000000	0.00000000000000	0.00000000000000	0.00000000000000	
4.10998500000000	-15.37569600000000	732.01073899999994	46.14528000000000	0.12766400000000	0.00000000000000	0.10271800000000	0.00000000000000	0.00000000000000	0.00000000000000	0.00000000000000	0.00000000000000	0.00000000000000	0.00000000000000	14.99074400000000	0.00000000000000	0.00000000000000	0.00000000000000	0.00000000000000	
4.11164800000000	-15.90763700000000	733.44679499999995	46.18541900000000	0.12665900000000	0.00000000000000	0.10267300000000	0.00000000000000	0.00000000000000	0.00000000000000	0.00000000000000	0.00000000000000	0.00000000000000	0.00000000000000	15.09026800000000	0.00000000000000	0.00000000000000	0.00000000000000	0.00000000000000	
4.11332100000000	-16.43609400000000	734.90353400000004	46.22348700000000	0.12566700000000	0.00000000000000	0.10262500000000	0.00000000000000	0.00000000000000	0.00000000000000	0.00000000000000	0.00000000000000	0.00000000000000	0.00000000000000	15.18896400000000	0.00000000000000	0.00000000000000	0.00000000000000	0.00000000000000	
4.11498000000000	-16.96047100000000	736.37954999999999	46.25964400000000	0.12468900000000	0.00000000000000	0.10257600000000	0.00000000000000	0.00000000000000	0.00000000000000	0.00000000000000	0.00000000000000	0.00000000000000	0.00000000000000	15.28671600000000	0.00000000000000	0.00000000000000	0.00000000000000	0.00000000000000	
4.11664600000000	-17.48017600000000	737.87343199999998	46.29407600000000	0.12372500000000	0.00000000000000	0.10252500000000	0.00000000000000	0.00000000000000	0.00000000000000	0.00000000000000	0.00000000000000	0.00000000000000	0.00000000000000	15.38340700000000	0.00000000000000	0.00000000000000	0.00000000000000	0.00000000000000	
4.11831900000000	-17.99462900000000	739.38377000000003	46.32699100000000	0.12277600000000	0.00000000000000	0.10247200000000	0.00000000000000	0.00000000000000	0.00000000000000	0.00000000000000	0.00000000000000	0.00000000000000	0.00000000000000	15.47892100000000	0.00000000000000	0.00000000000000	0.00000000000000	0.00000000000000	
4.11998500000000	-18.50325800000000	740.90914699999996	46.35861800000000	0.12184300000000	0.00000000000000	0.10241800000000	0.00000000000000	0.00000000000000	0.00000000000000	0.00000000000000	0.00000000000000	0.00000000000000	0.00000000000000	15.57314400000000	0.00000000000000	0.00000000000000	0.00000000000000	0.00000000000000	
4.12164800000000	-19.00550500000000	742.44813999999997	46.38920800000000	0.12092700000000	0.00000000000000	0.10236200000000	0.00000000000000	0.00000000000000	0.00000000000000	0.00000000000000	0.00000000000000	0.00000000000000	0.00000000000000	15.66596500000000	0.00000000000000	0.00000000000000	0.00000000000000	0.00000000000000	
4.12331400000000	-19.50082500000000	743.99932000000001	46.41903200000000	0.12002800000000	0.00000000000000	0.10230500000000	0.00000000000000	0.00000000000000	0.00000000000000	0.00000000000000	0.00000000000000	0.00000000000000	0.00000000000000	15.75727100000000	0.00000000000000	0.00000000000000	0.00000000000000	0.00000000000000	
4.12498100000000	-19.98869100000000	745.56124899999998	46.44837500000000	0.11914700000000	0.00000000000000	0.10224700000000	0.00000000000000	0.00000000000000	0.00000000000000	0.00000000000000	0.00000000000000	0.00000000000000	0.00000000000000	15.84695300000000	0.00000000000000	0.00000000000000	0.00000000000000	0.00000000000000	
4.12665100000000	-20.46859400000000	747.13248199999998	46.47754200000000	0.11828300000000	0.00000000000000	0.10218700000000	0.00000000000000	0.00000000000000	0.00000000000000	0.00000000000000	0.00000000000000	0.00000000000000	0.00000000000000	15.93490500000000	0.00000000000000	0.00000000000000	0.00000000000000	0.00000000000000	
4.12831600000000	-20.94004600000000	748.71156099999996	46.50685000000000	0.11743700000000	0.00000000000000	0.10212600000000	0.00000000000000	0.00000000000000	0.00000000000000	0.00000000000000	0.00000000000000	0.00000000000000	0.00000000000000	16.02102000000000	0.00000000000000	0.00000000000000	0.00000000000000	0.00000000000000	
4.12998400000000	-21.40257700000000	750.29701999999997	46.53662900000000	0.11660900000000	0.00000000000000	0.10206500000000	0.00000000000000	0.00000000000000	0.00000000000000	0.00000000000000	0.00000000000000	0.00000000000000	0.00000000000000	16.10519600000000	0.00000000000000	0.00000000000000	0.00000000000000	0.00000000000000	
4.13165500000000	-21.85574500000000	751.88738300000000	46.56722000000000	0.11579900000000	0.00000000000000	0.10200200000000	0.00000000000000	0.00000000000000	0.00000000000000	0.00000000000000	0.00000000000000	0.00000000000000	0.00000000000000	16.18733100000000	0.00000000000000	0.00000000000000	0.00000000000000	0.00000000000000	
4.13331600000000	-22.29912800000000	753.48115800000005	46.59897200000000	0.11500700000000	0.00000000000000	0.10193900000000	0.00000000000000	0.00000000000000	0.00000000000000	0.00000000000000	0.00000000000000	0.00000000000000	0.00000000000000	16.26732700000000	0.00000000000000	0.00000000000000	0.00000000000000	0.00000000000000	
4.13498100000000	-22.73233400000000	755.07684500000005	46.63224200000000	0.11423300000000	0.00000000000000	0.10187500000000	0.00000000000000	0.00000000000000	0.00000000000000	0.00000000000000	0.00000000000000	0.00000000000000	0.00000000000000	16.34508900000000	0.00000000000000	0.00000000000000	0.00000000000000	0.00000000000000	
4.13665000000000	-23.15499400000000	756.67293199999995	46.66738900000000	0.11347600000000	0.00000000000000	0.10181100000000	0.00000000000000	0.00000000000000	0.00000000000000	0.00000000000000	0.00000000000000	0.00000000000000	0.00000000000000	16.42052400000000	0.00000000000000	0.00000000000000	0.00000000000000	0.00000000000000	
